<svg width="183" height="105" viewBox="0 0 183 105" fill="none" xmlns="http://www.w3.org/2000/svg">
<g clip-path="url(#clip0_1_5)">
<path d="M172.675 95.6242C172.675 95.6242 128.93 105 91.5 105C54.0697 105 10.3297 95.6242 10.3297 95.6242C4.18955 93.8306 0 90.9915 0 85.2708V18.6667C0 12.9502 4.63479 9.8646 10.3297 8.3133C10.3297 8.3133 54.6591 0 91.5042 0C128.349 0 172.679 8.3133 172.679 8.3133C178.412 9.69885 183.008 12.946 183.008 18.6667V85.2708C183.008 90.9873 178.645 94.2471 172.679 95.6242H172.675Z" fill="#FD2C38"/>
<path d="M91.5 101.188C56.3384 101.188 14.7864 92.6363 14.3708 92.5471C9.66395 91.2168 4.29132 88.8919 4.29132 82.674V21.3443C4.29132 16.6266 7.77271 13.2137 14.3539 11.4754C14.8033 11.3947 56.8939 3.80814 91.5042 3.80814C126.115 3.80814 168.209 11.3947 168.625 11.4712C175.134 12.997 178.713 16.5033 178.713 21.3443V82.6782C178.713 87.5914 175.134 91.0935 168.638 92.5471H168.633C168.218 92.6363 126.662 101.188 91.5042 101.188H91.5ZM91.5 4.50516C56.9532 4.50516 14.9221 12.0789 14.5023 12.1554C8.19252 13.8215 4.98251 16.9156 4.98251 21.3443V82.6782C4.98251 87.1664 7.92961 90.0055 14.5362 91.8755C14.9263 91.9563 56.4147 100.495 91.5042 100.495C126.594 100.495 167.896 91.9945 168.489 91.8713C172.84 90.898 178.022 88.5137 178.022 82.6782V21.3443C178.022 15.2878 172.047 12.9842 168.485 12.1512C168.086 12.0789 126.594 4.50516 91.5042 4.50516H91.5Z" fill="white"/>
<path d="M111.837 55.5027C111.939 55.9872 112.198 56.3528 112.609 56.6035C113.02 56.85 113.47 56.9648 113.962 56.935C115.09 56.8755 115.641 56.5355 115.607 55.915C115.594 55.6855 115.484 55.5367 115.272 55.4687C115.06 55.4007 114.687 55.3455 114.144 55.2987L110.374 54.8822C107.007 54.5209 105.256 53.0801 105.12 50.5555C105.108 50.326 105.137 49.8713 105.201 49.1955C105.404 47.6867 105.998 46.3776 106.982 45.2641C107.966 44.1548 109.195 43.292 110.667 42.6843C112.142 42.0765 113.699 41.728 115.344 41.6387C120.712 41.3497 123.71 42.9563 124.338 46.4584L116.862 48.2945C116.811 47.8567 116.582 47.5039 116.167 47.2277C115.751 46.9557 115.276 46.8324 114.738 46.8622C113.788 46.9132 113.287 47.1979 113.236 47.7164V47.7929C113.262 48.1542 113.554 48.371 114.127 48.4432L118.448 49.0255C121.768 49.4675 123.503 51.0528 123.651 53.7814C123.681 54.3212 123.655 54.8397 123.579 55.3327C123.261 57.5428 122.112 59.2726 120.127 60.5137C118.147 61.7547 115.832 62.4517 113.186 62.592C110.59 62.7322 108.449 62.4007 106.757 61.6017C105.065 60.8027 104.09 59.4299 103.831 57.479L111.841 55.4985L111.837 55.5027Z" fill="white"/>
<path d="M32.0322 34.201C37.1589 33.9247 41.1534 35.1785 44.0199 37.9666C46.2504 40.1554 47.4589 42.935 47.637 46.3097C47.6836 47.1597 47.6582 48.1415 47.5607 49.255C47.0603 53.9939 45.0927 57.9253 41.6622 61.0534C38.202 64.1815 33.8938 65.8816 28.7332 66.1621L14.5277 66.9272L17.8268 34.9703L32.0322 34.2052V34.201ZM28.695 57.5258C30.9891 57.4026 32.8888 56.6205 34.3899 55.1797C36.3108 53.3352 37.2013 51.1081 37.0571 48.49C36.9723 46.9472 36.4465 45.6764 35.4797 44.6861C34.2415 43.3941 32.4775 42.8075 30.1791 42.9308L27.3465 43.0838L25.8581 57.6788L28.6907 57.5258H28.695Z" fill="white"/>
<path d="M57.0423 64.9721L48.7861 65.4183L50.8088 45.6976L59.0649 45.2514L57.0423 64.9721ZM50.953 44.2993L51.8392 36.0285L60.0487 35.5865L59.2006 43.8531L50.953 44.2993Z" fill="white"/>
<path d="M75.8825 44.3461L75.2252 50.7511L71.0018 50.9806L69.6364 64.2963C69.6364 64.2963 68.9748 68.81 68.7289 70.0595C68.1564 72.9751 66.4984 74.5307 66.4984 74.5307L59.4636 71.4833C59.4636 71.4833 60.4007 70.493 60.8756 68.5294C61.0876 67.6539 61.3802 64.7383 61.3802 64.7383L62.7457 51.4226L60.3244 51.5543L60.9816 45.1494L63.4029 45.0176L63.7167 42.2593C63.9499 39.8792 64.8828 37.9411 66.5239 36.4535C68.1649 34.9617 70.2003 34.15 72.6343 34.0182C74.1439 33.9375 75.645 34.15 77.1377 34.6642L74.9284 40.8822C74.6401 40.7972 74.3178 40.759 73.9616 40.7802C73.3976 40.81 72.9269 40.9842 72.5453 41.2987C72.1637 41.6175 71.9474 42.034 71.9007 42.5483L71.6633 44.5671L75.8868 44.3376L75.8825 44.3461Z" fill="white"/>
<path d="M101.202 62.592L92.946 63.0382L94.9687 43.3175L103.225 42.8713L101.202 62.592ZM95.1128 41.9362L95.9524 33.6654L104.196 33.1937L103.344 41.4645L95.1128 41.9362Z" fill="white"/>
<path d="M167.654 30.5118C167.132 29.9891 166.441 29.7001 165.703 29.7001C164.965 29.7001 164.274 29.9891 163.753 30.5118C163.231 31.0346 162.943 31.7274 162.943 32.4669C162.943 33.2064 163.231 33.8992 163.753 34.422C164.274 34.9447 164.965 35.2338 165.703 35.2338C166.441 35.2338 167.132 34.9447 167.654 34.422C168.175 33.8992 168.464 33.2064 168.464 32.4669C168.464 31.7274 168.175 31.0346 167.654 30.5118ZM167.476 34.2477C167.001 34.7237 166.373 34.983 165.703 34.983C165.033 34.983 164.406 34.7195 163.931 34.2477C163.456 33.7717 163.197 33.1427 163.197 32.4712C163.197 31.7996 163.46 31.1706 163.931 30.6946C164.406 30.2186 165.033 29.9593 165.703 29.9593C166.373 29.9593 167.001 30.2228 167.476 30.6946C167.951 31.1706 168.209 31.7996 168.209 32.4712C168.209 33.1427 167.946 33.7717 167.476 34.2477Z" fill="white"/>
<path d="M165.699 35.2465C164.957 35.2465 164.262 34.9575 163.74 34.4347C163.218 33.912 162.93 33.2107 162.93 32.4712C162.93 31.7316 163.218 31.0304 163.74 30.5076C164.262 29.9848 164.961 29.6958 165.699 29.6958C166.437 29.6958 167.137 29.9848 167.658 30.5076C168.18 31.0304 168.468 31.7274 168.468 32.4712C168.468 33.2149 168.18 33.912 167.658 34.4347C167.137 34.9575 166.441 35.2465 165.699 35.2465ZM165.699 29.7128C164.965 29.7128 164.274 29.9976 163.753 30.5203C163.235 31.0431 162.947 31.7316 162.947 32.4712C162.947 33.2107 163.231 33.8992 163.753 34.422C164.274 34.9448 164.961 35.2295 165.699 35.2295C166.437 35.2295 167.124 34.9448 167.645 34.422C168.167 33.8992 168.451 33.2107 168.451 32.4712C168.451 31.7316 168.167 31.0431 167.645 30.5203C167.124 29.9976 166.437 29.7128 165.699 29.7128ZM165.699 34.9958C165.025 34.9958 164.393 34.7322 163.918 34.2562C163.443 33.7802 163.18 33.1469 163.18 32.4712C163.18 31.7954 163.443 31.1621 163.918 30.6861C164.393 30.2101 165.025 29.9466 165.699 29.9466C166.373 29.9466 167.005 30.2101 167.48 30.6861C167.955 31.1621 168.218 31.7954 168.218 32.4712C168.218 33.1469 167.955 33.7802 167.48 34.2562C167.005 34.7322 166.373 34.9958 165.699 34.9958ZM165.699 29.9678C165.033 29.9678 164.406 30.2271 163.931 30.7031C163.46 31.1749 163.197 31.8039 163.197 32.4754C163.197 33.1469 163.456 33.7717 163.931 34.2477C164.401 34.7195 165.029 34.983 165.699 34.983C166.369 34.983 166.992 34.7237 167.467 34.2477L167.476 34.2562L167.467 34.2477C167.938 33.776 168.201 33.1469 168.201 32.4754C168.201 31.8039 167.942 31.1791 167.467 30.7031C166.997 30.2313 166.369 29.9678 165.699 29.9678Z" fill="white"/>
<path d="M166.441 31.9569C166.441 31.4681 166.093 31.2939 165.623 31.2939H164.893V33.6357H165.194V32.6454H165.61L166.174 33.6357H166.513L165.92 32.6114C166.238 32.5349 166.445 32.3139 166.445 31.9526L166.441 31.9569ZM165.58 32.4074H165.194V31.5404H165.58C165.945 31.5404 166.144 31.6509 166.144 31.9569C166.144 32.2629 165.945 32.4074 165.58 32.4074Z" fill="white"/>
<path d="M166.526 33.6485H166.161L165.602 32.6582H165.203V33.6485H164.881V31.2854H165.623C166.174 31.2854 166.454 31.5106 166.454 31.9569C166.454 32.2969 166.267 32.5349 165.932 32.6242L166.526 33.6527V33.6485ZM166.174 33.6272H166.488L165.898 32.6072H165.911C166.246 32.5222 166.428 32.2884 166.428 31.9526C166.428 31.5191 166.157 31.3024 165.618 31.3024H164.898V33.6272H165.182V32.6369H165.614L166.174 33.6272ZM165.576 32.4159H165.182V31.5276H165.576C165.975 31.5276 166.149 31.6594 166.149 31.9569C166.149 32.2544 165.949 32.4159 165.576 32.4159ZM165.203 32.3947H165.576C165.937 32.3947 166.127 32.2417 166.127 31.9526C166.127 31.6636 165.958 31.5446 165.576 31.5446H165.203V32.3947Z" fill="white"/>
<path d="M112.613 33.7717L114.165 33.6867C114.543 33.6654 114.873 33.7122 115.153 33.8227C115.433 33.9332 115.654 34.1032 115.815 34.3285C115.976 34.5537 116.061 34.8257 116.078 35.1402C116.099 35.5738 116.022 35.9563 115.849 36.2963C115.67 36.6321 115.416 36.9041 115.077 37.0996C114.738 37.2951 114.343 37.4098 113.885 37.4311L112.075 37.5288L112.617 33.7717H112.613ZM113.873 36.7213C114.161 36.7043 114.411 36.6321 114.619 36.496C114.827 36.36 114.979 36.1858 115.081 35.9648C115.183 35.7438 115.225 35.5015 115.213 35.2295C115.196 34.949 115.094 34.7365 114.907 34.5877C114.721 34.439 114.453 34.3752 114.11 34.3922L113.372 34.4305L113.033 36.7596L113.868 36.7128L113.873 36.7213Z" fill="white"/>
<path d="M117.744 34.1882L117.63 35.0042L119.351 34.9107L119.254 35.5865L117.528 35.68L117.405 36.547L119.428 36.4365L119.321 37.1336L116.451 37.2866L116.993 33.5294L119.796 33.3764L119.69 34.0735L117.744 34.1797V34.1882Z" fill="white"/>
<path d="M120.449 37.0231C120.178 36.9593 119.953 36.8743 119.788 36.7595L120.102 36.0753C120.28 36.19 120.475 36.275 120.691 36.3303C120.907 36.3855 121.124 36.4068 121.348 36.394C121.586 36.3813 121.768 36.3303 121.904 36.2453C122.04 36.1603 122.099 36.0498 122.095 35.918C122.09 35.8075 122.031 35.7268 121.917 35.6758C121.806 35.6248 121.628 35.5695 121.382 35.5143C121.136 35.4548 120.937 35.3995 120.784 35.34C120.628 35.2847 120.492 35.1912 120.373 35.068C120.254 34.9447 120.191 34.7705 120.178 34.558C120.165 34.3072 120.22 34.082 120.352 33.8822C120.479 33.6824 120.67 33.5252 120.92 33.4104C121.17 33.2957 121.467 33.2277 121.806 33.2064C122.057 33.1937 122.294 33.2064 122.519 33.2489C122.743 33.2914 122.939 33.3594 123.104 33.4529L122.816 34.1287C122.671 34.0395 122.515 33.9757 122.336 33.9374C122.163 33.8992 121.98 33.8864 121.794 33.8949C121.552 33.9077 121.361 33.963 121.225 34.0522C121.09 34.1457 121.022 34.2605 121.03 34.3922C121.035 34.473 121.069 34.541 121.132 34.592C121.196 34.643 121.272 34.6855 121.365 34.711C121.459 34.7365 121.59 34.7705 121.76 34.8087C122.001 34.8597 122.196 34.915 122.353 34.9702C122.51 35.0255 122.646 35.1147 122.756 35.2337C122.871 35.3528 122.934 35.5143 122.943 35.7225C122.956 35.9775 122.896 36.2028 122.765 36.3983C122.633 36.5938 122.442 36.7511 122.188 36.8701C121.934 36.9891 121.637 37.0571 121.298 37.0741C121.005 37.0911 120.721 37.0656 120.449 37.0018V37.0231Z" fill="white"/>
<path d="M123.927 33.1639L125.479 33.0789C125.856 33.0577 126.187 33.1044 126.467 33.2149C126.746 33.3254 126.967 33.4954 127.128 33.7207C127.285 33.946 127.374 34.218 127.391 34.5325C127.412 34.966 127.336 35.3485 127.162 35.6885C126.984 36.0243 126.725 36.2963 126.39 36.4918C126.051 36.6873 125.657 36.8021 125.199 36.8233L123.388 36.9211L123.931 33.1639H123.927ZM125.186 36.1135C125.474 36.0965 125.725 36.0243 125.932 35.8883C126.14 35.7523 126.293 35.578 126.395 35.357C126.496 35.136 126.539 34.8937 126.526 34.6217C126.509 34.3412 126.407 34.1287 126.221 33.98C126.03 33.8312 125.767 33.7674 125.423 33.7844L124.686 33.8227L124.351 36.1518L125.186 36.105V36.1135Z" fill="white"/>
<path d="M129.053 33.5804L128.939 34.3965L130.66 34.303L130.563 34.9787L128.837 35.0722L128.714 35.9393L130.737 35.8288L130.631 36.5258L127.76 36.6788L128.303 32.9217L131.106 32.7687L131 33.4657L129.058 33.5719L129.053 33.5804Z" fill="white"/>
<path d="M134.553 32.5902L134.01 36.3473L133.154 36.394L133.595 33.3339L132.853 33.3722L132.954 32.6752L134.553 32.5902Z" fill="white"/>
<path d="M137.136 32.5604C137.365 32.6667 137.551 32.8282 137.687 33.0492C137.822 33.2702 137.903 33.5464 137.92 33.8695C137.941 34.2435 137.882 34.6132 137.742 34.9787C137.602 35.3443 137.369 35.6503 137.046 35.8968C136.724 36.1433 136.313 36.2835 135.821 36.309C135.617 36.3218 135.418 36.309 135.232 36.275C135.045 36.241 134.888 36.1858 134.769 36.1178L135.13 35.4633C135.312 35.5738 135.545 35.6205 135.834 35.6078C136.181 35.5908 136.453 35.476 136.648 35.272C136.843 35.068 136.966 34.8087 137.017 34.4942C136.813 34.7025 136.542 34.8172 136.203 34.8342C135.982 34.847 135.774 34.813 135.588 34.7407C135.401 34.6642 135.244 34.5495 135.13 34.3965C135.011 34.2392 134.947 34.0522 134.935 33.8312C134.922 33.5634 134.973 33.3297 135.092 33.1214C135.21 32.9132 135.38 32.7517 135.6 32.6327C135.821 32.5137 136.071 32.4457 136.355 32.4287C136.652 32.4117 136.915 32.4584 137.144 32.5604H137.136ZM136.864 33.9927C136.983 33.878 137.038 33.7334 137.025 33.5634C137.017 33.4147 136.957 33.2914 136.843 33.1979C136.728 33.1044 136.576 33.0619 136.389 33.0704C136.198 33.0789 136.046 33.1427 135.931 33.2617C135.817 33.3764 135.766 33.5294 135.774 33.7122C135.783 33.8695 135.842 33.9885 135.952 34.0735C136.063 34.1585 136.207 34.1967 136.385 34.184C136.584 34.1712 136.745 34.1075 136.864 33.9927Z" fill="white"/>
<path d="M141.457 32.2161L141.376 32.7814L139.565 36.0498L138.611 36.1008L140.35 32.9812L139.145 33.0449L139.056 33.6569L138.293 33.6994L138.484 32.3776L141.457 32.2161Z" fill="white"/>
<path d="M143.772 32.2034C144.001 32.3097 144.187 32.4712 144.323 32.6922C144.463 32.9132 144.539 33.1894 144.556 33.5124C144.577 33.8865 144.518 34.2562 144.378 34.6217C144.238 34.9872 144.005 35.2933 143.683 35.5398C143.36 35.7863 142.949 35.9265 142.457 35.952C142.254 35.9648 142.054 35.952 141.868 35.918C141.681 35.884 141.524 35.8288 141.406 35.7608L141.766 35.1063C141.948 35.2168 142.182 35.2635 142.47 35.2508C142.818 35.2338 143.089 35.119 143.284 34.915C143.479 34.711 143.602 34.4517 143.653 34.1372C143.45 34.3455 143.178 34.4602 142.839 34.4772C142.618 34.49 142.411 34.456 142.224 34.3837C142.037 34.3072 141.881 34.1925 141.766 34.0395C141.652 33.8865 141.584 33.6952 141.571 33.4742C141.558 33.2064 141.609 32.9727 141.728 32.7644C141.847 32.5562 142.016 32.3947 142.237 32.2757C142.457 32.1566 142.707 32.0886 142.992 32.0716C143.288 32.0546 143.551 32.1014 143.78 32.2034H143.772ZM143.5 33.6357C143.619 33.5167 143.674 33.3764 143.666 33.2064C143.657 33.0577 143.598 32.9344 143.479 32.8409C143.365 32.7474 143.212 32.7049 143.025 32.7134C142.835 32.7219 142.682 32.7857 142.568 32.9047C142.453 33.0194 142.402 33.1724 142.411 33.3552C142.419 33.5124 142.478 33.6314 142.589 33.7165C142.699 33.8015 142.843 33.8397 143.021 33.827C143.221 33.8142 143.382 33.7547 143.5 33.6357Z" fill="white"/>
<path fill-rule="evenodd" clip-rule="evenodd" d="M160.5 53.3011C162.905 55.3667 165.305 57.4365 167.709 59.5021C167.31 60.0674 153.686 69.065 147.546 73.1239C146.146 71.8106 145.778 71.462 144.374 70.1487C146.036 68.98 146.795 68.5464 147.478 67.8154C128.489 74.3819 95.1128 79.0783 71.9007 65.8561C72.5665 65.4183 76.2387 62.269 78.0069 60.6709C88.7564 73.6296 147.72 67.8069 160.505 53.3011H160.5Z" fill="#2FA84E"/>
<path d="M77.2649 59.8464L78.1214 59.0729L78.8593 59.9611C79.8897 61.2022 81.4756 62.2945 83.5407 63.221L84.0792 57.7851C84.287 55.8853 84.9273 54.4997 86.0044 53.6284C87.0815 52.7571 88.7098 52.2599 90.8978 52.1409L92.0555 52.0771L93.247 43.2496C92.7552 43.1985 92.276 43.1858 91.8138 43.2113C88.9048 43.3686 86.6829 44.9241 85.1393 47.878L84.7662 43.8276L77.2437 44.2356L75.4796 61.4402C76.1284 60.8749 76.7518 60.3224 77.2733 59.8506L77.2649 59.8464Z" fill="white"/>
<path d="M127.603 60.1524C128.701 61.2022 130.228 61.6782 132.183 61.5719C133.518 61.4997 134.858 61.1257 136.198 60.4457C137.538 59.7656 138.488 58.8306 139.044 57.6406C139.15 58.6181 139.548 59.3364 140.244 59.8039C140.939 60.2714 141.8 60.4754 142.826 60.4202L146.257 60.2331L146.698 60.2076C146.948 60.1141 147.194 60.0249 147.44 59.9314L147.999 54.5252L146.842 54.5889L148.284 40.4529L139.998 40.8992L138.989 50.9083C138.908 51.7923 138.624 52.5149 138.14 53.0844C137.657 53.6539 137.029 53.9557 136.258 53.9982C135.668 54.0279 135.202 53.8792 134.863 53.5519C134.523 53.2204 134.337 52.7614 134.307 52.1664C134.294 51.9624 134.299 51.8051 134.32 51.7031L135.414 41.15L127.128 41.5962L125.86 53.9429C125.801 54.7717 125.784 55.3667 125.801 55.728C125.903 57.6321 126.505 59.1111 127.603 60.1609V60.1524Z" fill="white"/>
<path d="M151.091 58.3886C154.339 56.8755 156.926 55.235 158.749 53.5179C158.308 53.2842 158.058 52.7869 158.015 52.0091C157.994 51.5968 158.003 51.2738 158.041 51.0401L160.254 29.6576L151.969 30.1038L149.573 53.1609C149.526 53.7049 149.513 54.2234 149.539 54.7122C149.624 56.323 150.145 57.5471 151.082 58.3886H151.091Z" fill="white"/>
</g>
<defs>
<clipPath id="clip0_1_5">
<rect width="183" height="105" fill="white"/>
</clipPath>
</defs>
</svg>
